<?xml version="1.0" encoding="UTF-8" standalone="no"?>
<svg
   height="14"
   viewBox="0 0 15.998047 14"
   width="15.998047"
   version="1.1"
   id="svg10"
   xmlns="http://www.w3.org/2000/svg"
   xmlns:svg="http://www.w3.org/2000/svg">
  <defs
     id="defs14" />
  <g
     fill="#2e3436"
     id="g8"
     style="fill:#e8e6e3;fill-opacity:1"
     transform="translate(-9.765625e-4,-1)">
    <path
       d="m 14.902344,2 c -0.04297,0.00781 -0.08594,0.019531 -0.125,0.03125 -0.449219,0.101562 -0.792969,0.542969 -0.78125,1 v 1.6875 C 14,6.03125 14,6.03125 12.433594,6.03125 h -1.4375 c -0.523438,0 -1,0.476562 -1,1 -0.00781,0.074219 -0.00781,0.148438 0,0.21875 v 0.78125 h 6 v -5 c 0.0039,-0.0625 0.0039,-0.125 0,-0.1875 v -0.8125 h -0.8125 C 15.089844,2.007812 14.996094,1.996094 14.902344,2 Z m 0,0"
       id="path2"
       style="fill:#e8e6e3;fill-opacity:1" />
    <path
       d="m 0.00390625,8 v 5 C 0,13.0625 0,13.125 0.00390625,13.1875 V 14 H 0.816406 c 0.09375,0.02344 0.1875,0.03516 0.28125,0.03125 0.042969,-0.0078 0.085938,-0.01953 0.125,-0.03125 0.449219,-0.101562 0.792969,-0.542969 0.78125,-1 V 11.3125 C 2,10 2,10 3.566406,10 h 1.4375 c 0.523438,0 1,-0.476562 1,-1 0.00781,-0.074219 0.00781,-0.144531 0,-0.21875 V 8 Z m 0,0"
       id="path4"
       style="fill:#e8e6e3;fill-opacity:1" />
    <path
       d="M 8,1 C 4.847656,1 2.179688,3.125 1.3125,6 H 3.40625 C 4.179688,4.234375 5.945312,3 8,3 c 2.054688,0 3.820312,1.234375 4.59375,3 H 14.6875 C 13.820312,3.125 11.152344,1 8,1 Z m -6.6875,9 c 0.867188,2.875 3.535156,5 6.6875,5 3.152344,0 5.820312,-2.125 6.6875,-5 H 12.59375 C 11.820312,11.765625 10.054688,13 8,13 5.945312,13 4.179688,11.765625 3.40625,10 Z m 0,0"
       id="path6"
       style="fill:#e8e6e3;fill-opacity:1" />
  </g>
</svg>
